<?xml version="1.0" encoding="UTF-8" standalone="no"?>
<!-- Created with Inkscape (http://www.inkscape.org/) -->

<svg
   width="156.37155mm"
   height="131.39624mm"
   viewBox="0 0 156.37155 131.39624"
   version="1.1"
   id="svg5"
   xml:space="preserve"
   xmlns="http://www.w3.org/2000/svg"
   xmlns:svg="http://www.w3.org/2000/svg"><defs
     id="defs2" /><g
     id="layer1"
     transform="translate(-23.722539,-54.255442)"><path
       style="fill:#ffffff;fill-opacity:1;stroke-width:1"
       d="m 178.13644,185.19235 c -2.47798,-1.29831 -11.80372,-4.30861 -20.17767,-6.51324 -5.39912,-1.42145 -7.86076,-2.40348 -10.698,-4.26777 -4.6921,-3.0831 -6.9505,-7.45453 -6.60637,-12.7875 0.35794,-5.54713 2.45325,-8.54778 9.18308,-13.15091 1.95823,-1.33941 4.17648,-3.06581 4.92944,-3.83646 3.33423,-3.41256 3.79119,-6.85597 1.53467,-11.56455 -0.71436,-1.49062 -1.90896,-3.50055 -2.66218,-4.47914 -0.0383,-0.0497 -0.49092,0.0619 -1.00586,0.24812 -1.22736,0.44382 -1.54323,0.15551 -3.22138,-2.94025 l -1.28842,-2.37681 h -1.24226 c -2.12227,0 -5.19271,-0.72816 -6.89395,-1.63491 -2.78851,-1.48626 -4.06505,-4.0435 -3.87703,-7.76673 l 0.0976,-1.93384 -3.31138,-0.98292 c -3.97759,-1.18067 -4.6826,-1.51529 -5.24045,-2.48728 -0.40168,-0.69989 -1.2593,-0.99193 -14.06601,-4.78983 -8.50834,-2.5232 -14.135864,-4.061443 -14.961174,-4.089533 -1.66017,-0.0565 -4.2413,-0.81759 -4.8385,-1.42669 -0.27225,-0.27767 -5.25919,-1.86878 -12.49171,-3.98554 -6.62119,-1.93784 -12.17172,-3.57232 -12.3345,-3.63217 -0.16277,-0.0598 -0.3611,0.14031 -0.44073,0.44481 -0.13801,0.52775 -0.27881,0.48825 -3.01133,-0.84467 -1.57661,-0.76906 -2.90103,-1.41305 -2.94317,-1.43107 -0.0421,-0.018 0.13059,-0.77802 0.38383,-1.68887 l 0.46043,-1.65608 2.2521,0.17311 c 3.77728,0.29034 4.28875,0.41723 4.20076,1.04216 -0.0706,0.50105 0.9189,0.83949 12.22636,4.18192 7.32016,2.16381 12.54211,3.57852 12.89319,3.49299 0.73626,-0.17938 4.33353,0.87355 4.73058,1.38465 0.301364,0.38793 2.008484,0.92088 18.609504,5.809823 8.62829,2.541 9.72967,2.80826 10.46983,2.54061 0.45495,-0.16451 1.1929,-0.29911 1.63989,-0.29911 1.08173,0 13.65304,3.71911 15.11605,4.47195 2.15974,1.11135 3.16924,2.48213 6.84253,9.29132 4.79913,8.89616 4.44061,8.09211 3.94526,8.84812 -0.22769,0.34749 -0.65445,0.70813 -0.94835,0.80141 -0.50183,0.15927 -0.46803,0.26728 0.555,1.77376 2.40232,3.53757 3.6029,7.21844 3.30402,10.12983 -0.38051,3.70665 -2.88488,6.83152 -8.44867,10.54196 -3.91747,2.61253 -5.95483,4.49398 -7.00987,6.47344 -3.2523,6.10193 -1.54032,12.83831 4.26452,16.78031 2.43779,1.65546 5.16327,2.71095 11.0572,4.28209 8.43093,2.24741 15.75525,4.61156 19.61918,6.33271 1.47225,0.65579 1.51206,0.70018 1.2143,1.35369 -0.362,0.79451 -0.57531,0.8142 -1.81041,0.16709 z M 147.3658,122.13478 c -0.0746,-0.18191 -1.0181,-1.93808 -2.09674,-3.90261 -1.60319,-2.91989 -2.13613,-3.66731 -2.91971,-4.09471 -0.5272,-0.28757 -1.02101,-0.46039 -1.09734,-0.38405 -0.0763,0.0763 0.1679,0.8981 0.54275,1.82613 0.88296,2.186 1.12202,4.50988 0.51569,5.01309 -0.51116,0.42423 -0.92859,0.15703 -0.47043,-0.30112 0.66396,-0.66397 0.12195,-3.291 -1.22291,-5.92713 -0.42198,-0.82715 -0.77499,-1.13375 -1.58468,-1.37634 -1.98876,-0.59585 -1.98567,-0.59919 -1.85387,2.00299 0.21571,4.25879 1.88202,6.09652 6.42471,7.08565 2.13926,0.4658 3.94108,0.49362 3.76253,0.0581 z M 27.598846,103.68647 c -1.05957,-0.65485 -0.0239,-1.18806 13.19376,-6.792793 7.33501,-3.11029 13.37612,-5.61533 13.42469,-5.56676 0.0754,0.0754 -23.55117,11.399093 -25.57803,12.258963 -0.39239,0.16647 -0.86058,0.21173 -1.04042,0.10059 z m 27.50634,-12.810373 c 0,-0.0572 0.18478,-0.17489 0.41062,-0.26155 0.23546,-0.0904 0.34166,-0.046 0.24897,0.10398 -0.15538,0.25141 -0.65959,0.37186 -0.65959,0.15757 z m -31.0883,-0.59503 c -0.97985,-0.97985 -0.25716,-1.07305 14.05953,-1.81303 7.58735,-0.39217 14.01673,-0.66983 14.2875,-0.61702 0.27077,0.0528 -5.6394,0.66526 -13.13373,1.361 -7.49432,0.69573 -13.88532,1.31874 -14.20221,1.38446 -0.32265,0.0669 -0.76755,-0.0719 -1.01109,-0.31541 z m 29.96382,-2.66271 c 0.32743,-0.0631 0.86321,-0.0631 1.19063,0 0.32742,0.0631 0.0595,0.11467 -0.59531,0.11467 -0.65485,0 -0.92274,-0.0516 -0.59532,-0.11467 z m -6.41614,-4.87617 c -3.20146,-0.85628 -9.27365,-2.44903 -13.49375,-3.53945 -4.22011,-1.09042 -7.94081,-2.09874 -8.26823,-2.2407 -0.67589,-0.29304 -0.79201,-1.00433 -0.20099,-1.23113 0.35631,-0.13672 5.78857,1.46864 23.0213,6.80334 3.20146,0.99107 5.58271,1.79359 5.29167,1.78338 -0.29104,-0.0102 -3.14854,-0.71916 -6.35,-1.57544 z m 4.7625,-3.8903 c -2.03729,-1.42065 -7.55043,-5.23773 -12.25141,-8.48239 -6.08999,-4.20336 -8.5232,-6.0242 -8.46363,-6.33355 0.23185,-1.20389 -0.0534,-1.39959 19.32598,13.25981 4.52397,3.42214 5.49101,4.19984 5.15937,4.14923 -0.0364,-0.006 -1.73302,-1.17244 -3.77031,-2.5931 z m 1.17324,-7.51711 c -11.15088,-15.71566 -11.63983,-16.4236 -11.54417,-16.71464 0.0515,-0.15667 0.33028,-0.32002 0.61953,-0.36301 0.42831,-0.0637 1.64948,1.65492 6.58014,9.26041 3.32982,5.13622 7.16014,11.03523 8.51181,13.1089 1.35167,2.07367 2.41369,3.77031 2.36005,3.77031 -0.0536,0 -2.99095,-4.07789 -6.52736,-9.06197 z"
       id="path248" /></g></svg>
